# xmcd
#
# Track frame offsets: 
#        150
#        35887
#        72796
#        106369
#        138365
#        161804
#        183117
#        224976
#        260159
#        299135
#
# Disc length: 4096 seconds
#
# Revision: 2
# Processed by: cddbd v1.5.1PL0 Copyright (c) Steve Scherf et al.
# Submitted via: ExactAudioCopy v0.95a5
#
DISCID=ac0ffe0a
DTITLE=Vertigo Quintet - Vertigo Quintet
DYEAR=2005
DGENRE=Jazz
TTITLE0=Rozpravka
TTITLE1=Really sorry
TTITLE2=Tichy dum
TTITLE3=Exhibionista
TTITLE4=Elga
TTITLE5=Dozvuk I
TTITLE6=Dalasi
TTITLE7=Predtucha
TTITLE8=Poslepu
TTITLE9=Dozvuk II (coda)
EXTD=YEAR: 2005
EXTT0=
EXTT1=
EXTT2=
EXTT3=
EXTT4=
EXTT5=
EXTT6=
EXTT7=
EXTT8=
EXTT9=
PLAYORDER=
